<svg width="25" height="25" viewBox="0 0 25 25" fill="none" xmlns="http://www.w3.org/2000/svg">
<path d="M12.5 0C5.60805 0 0 5.60684 0 12.5C0 19.3932 5.60805 25 12.5 25C19.392 25 25 19.3932 25 12.5C25 5.60684 19.392 0 12.5 0ZM12.5 24.1674C6.0672 24.1674 0.834113 18.9332 0.834113 12.5C0.834113 6.0668 6.0672 0.832606 12.5 0.832606C18.9328 0.832606 24.1659 6.0668 24.1659 12.5C24.1659 18.9332 18.9328 24.1674 12.5 24.1674Z" fill="#003478"/>
<path d="M15.2268 5.47964H13.147C10.4981 5.45313 10.1598 7.09262 10.1598 8.86697V10.1572H8.99048C8.93763 10.1501 8.88386 10.1554 8.83336 10.1725C8.78285 10.1895 8.73696 10.218 8.69926 10.2558C8.66156 10.2935 8.63305 10.3394 8.61596 10.3899C8.59887 10.4404 8.59365 10.4941 8.60071 10.547V12.8858C8.59365 12.9386 8.59887 12.9924 8.61596 13.0429C8.63305 13.0934 8.66156 13.1393 8.69926 13.177C8.73696 13.2147 8.78285 13.2432 8.83336 13.2603C8.88386 13.2774 8.93763 13.2826 8.99048 13.2756H10.1598V19.1225C10.1533 19.1755 10.159 19.2292 10.1764 19.2796C10.1939 19.33 10.2226 19.3758 10.2605 19.4134C10.2983 19.451 10.3442 19.4795 10.3947 19.4966C10.4452 19.5138 10.499 19.5191 10.5519 19.5123H12.9334C13.1634 19.5388 13.3497 19.3525 13.2764 19.1225L13.278 13.2756H15.2268C15.2797 13.2826 15.3335 13.2774 15.384 13.2603C15.4345 13.2432 15.4804 13.2147 15.5181 13.177C15.5558 13.1393 15.5843 13.0934 15.6014 13.0429C15.6185 12.9924 15.6237 12.9386 15.6166 12.8858V10.547C15.6237 10.4941 15.6185 10.4404 15.6014 10.3899C15.5843 10.3394 15.5558 10.2935 15.5181 10.2558C15.4804 10.218 15.4345 10.1895 15.384 10.1725C15.3335 10.1554 15.2797 10.1501 15.2268 10.1572H13.2756L13.278 8.98781C13.3536 8.48965 13.3536 8.57073 13.8159 8.59801H15.2105C15.3188 8.57384 15.4342 8.5871 15.5153 8.50836C15.5963 8.42962 15.6431 8.32204 15.6158 8.20822V5.86944C15.623 5.81662 15.6179 5.76286 15.6009 5.71235C15.5839 5.66183 15.5555 5.61592 15.5179 5.57819C15.4802 5.54046 15.4344 5.51194 15.3839 5.49485C15.3334 5.47775 15.2797 5.47255 15.2268 5.47964ZM14.8098 7.77476L13.8322 7.73734C12.6216 7.73734 12.5203 8.39454 12.5203 9.06733L12.5171 10.5454C12.517 10.6002 12.5277 10.6544 12.5486 10.705C12.5695 10.7556 12.6001 10.8016 12.6388 10.8403C12.6775 10.8791 12.7234 10.9098 12.7739 10.9308C12.8245 10.9517 12.8787 10.9625 12.9334 10.9625H14.8371V12.4687H12.935C12.8245 12.4687 12.7185 12.5125 12.6404 12.5906C12.5622 12.6686 12.5181 12.7745 12.5179 12.885L12.5171 18.7327H10.9393V12.8858C10.9393 12.6558 10.7827 12.4695 10.5519 12.4695H9.38025V10.9633H10.5519C10.6066 10.9634 10.6608 10.9527 10.7113 10.9318C10.7619 10.9109 10.8079 10.8803 10.8466 10.8417C10.9245 10.7629 10.9386 10.6569 10.9386 10.5462V8.86619C10.9386 7.11834 11.2917 6.28574 13.1462 6.28574H14.809V7.77476H14.8098Z" fill="#003478"/>
</svg>
