<svg width="91" height="48" viewBox="0 0 91 48" fill="none" xmlns="http://www.w3.org/2000/svg">
<g clip-path="url(#clip0_271_3510)">
<path d="M12.736 13.656C13.0133 12.9093 14.3787 12.536 16.832 12.536C17.4507 12.536 18.176 12.5787 19.008 12.664C19.8613 12.7493 20.256 12.856 20.192 12.984L13.536 26.36V34.168C13.536 34.5307 12.9493 34.7867 11.776 34.936C11.1787 35.0213 10.592 35.064 10.016 35.064C9.44 35.064 8.864 35.032 8.288 34.968C7.11467 34.8187 6.528 34.552 6.528 34.168V26.552L-0.352 13.048C-0.437333 12.92 0 12.8027 0.96 12.696C1.92 12.568 2.73067 12.504 3.392 12.504C6.016 12.504 7.456 12.888 7.712 13.656L10.048 20.184L12.736 13.656ZM30.7915 35.32C27.8048 35.32 25.3622 34.3387 23.4635 32.376C21.5862 30.4133 20.6475 27.5547 20.6475 23.8C20.6475 20.024 21.5968 17.1653 23.4955 15.224C25.4155 13.2827 27.8795 12.312 30.8875 12.312C33.9168 12.312 36.3595 13.272 38.2155 15.192C40.0715 17.0907 40.9995 19.9813 40.9995 23.864C40.9995 27.7253 40.0502 30.6053 38.1515 32.504C36.2528 34.3813 33.7995 35.32 30.7915 35.32ZM30.8235 18.456C29.7995 18.456 28.9355 18.9253 28.2315 19.864C27.5488 20.8027 27.2075 22.1253 27.2075 23.832C27.2075 25.5173 27.5382 26.8187 28.1995 27.736C28.8608 28.632 29.7248 29.08 30.7915 29.08C31.8795 29.08 32.7542 28.6213 33.4155 27.704C34.0982 26.7867 34.4395 25.4747 34.4395 23.768C34.4395 22.0613 34.0875 20.7493 33.3835 19.832C32.7008 18.9147 31.8475 18.456 30.8235 18.456ZM58.6088 35.064C56.7528 35.064 55.7501 34.7653 55.6008 34.168L54.5448 30.04H49.4568L48.5288 34.008C48.4008 34.6693 47.3768 35 45.4568 35C44.4328 35 43.6754 34.9467 43.1848 34.84C42.6941 34.712 42.4488 34.616 42.4488 34.552L48.1128 12.888C48.1128 12.7173 49.5741 12.632 52.4968 12.632C55.4194 12.632 56.8808 12.7173 56.8808 12.888L62.4168 34.584C62.4168 34.7333 61.9261 34.8507 60.9448 34.936C59.9634 35.0213 59.1848 35.064 58.6088 35.064ZM50.2568 25.976H53.6168L52.1768 19.352H51.9848L50.2568 25.976Z" fill="#38A169"/>
<path d="M65.1094 25.2969V32H64.1719V23.5469H65.0703L65.1094 25.2969ZM64.9375 27.25L64.4844 27.0156C64.5156 26.5156 64.6094 26.0469 64.7656 25.6094C64.9271 25.1719 65.151 24.7865 65.4375 24.4531C65.724 24.1198 66.0677 23.8594 66.4688 23.6719C66.8698 23.4844 67.3255 23.3906 67.8359 23.3906C68.2474 23.3906 68.6198 23.4479 68.9531 23.5625C69.2917 23.6719 69.5781 23.8464 69.8125 24.0859C70.0521 24.3203 70.237 24.6276 70.3672 25.0078C70.4974 25.388 70.5625 25.8438 70.5625 26.375V32H69.6328V26.4062C69.6328 25.8438 69.5443 25.4036 69.3672 25.0859C69.1953 24.7682 68.9531 24.5417 68.6406 24.4062C68.3333 24.2708 67.9766 24.2031 67.5703 24.2031C67.0911 24.2031 66.6849 24.3021 66.3516 24.5C66.0234 24.6927 65.7552 24.9453 65.5469 25.2578C65.3438 25.5651 65.1927 25.8958 65.0938 26.25C64.9948 26.599 64.9427 26.9323 64.9375 27.25ZM70.5547 26.5156L69.9297 26.5312C69.9557 26.1198 70.0495 25.7266 70.2109 25.3516C70.3776 24.9766 70.6042 24.6432 70.8906 24.3516C71.1771 24.0547 71.5182 23.8203 71.9141 23.6484C72.3151 23.4766 72.7656 23.3906 73.2656 23.3906C73.7031 23.3906 74.0938 23.4505 74.4375 23.5703C74.7812 23.6849 75.0703 23.8698 75.3047 24.125C75.5443 24.375 75.7266 24.6953 75.8516 25.0859C75.9766 25.4766 76.0391 25.9453 76.0391 26.4922V32H75.1016V26.4844C75.1016 25.8854 75.013 25.4219 74.8359 25.0938C74.6641 24.7604 74.4245 24.5286 74.1172 24.3984C73.8099 24.2682 73.4505 24.2031 73.0391 24.2031C72.6328 24.2083 72.276 24.2839 71.9688 24.4297C71.6615 24.5703 71.4036 24.7578 71.1953 24.9922C70.9922 25.2214 70.8359 25.4688 70.7266 25.7344C70.6224 26 70.5651 26.2604 70.5547 26.5156ZM83.5547 30.4844V26.125C83.5547 25.724 83.4714 25.3776 83.3047 25.0859C83.138 24.7943 82.8932 24.5703 82.5703 24.4141C82.2474 24.2578 81.849 24.1797 81.375 24.1797C80.9375 24.1797 80.5469 24.2578 80.2031 24.4141C79.8646 24.5651 79.5964 24.7708 79.3984 25.0312C79.2057 25.2865 79.1094 25.5703 79.1094 25.8828L78.1719 25.875C78.1719 25.5573 78.25 25.25 78.4062 24.9531C78.5625 24.6562 78.7839 24.3906 79.0703 24.1562C79.3568 23.9219 79.6979 23.737 80.0938 23.6016C80.4948 23.4609 80.9349 23.3906 81.4141 23.3906C82.0182 23.3906 82.5495 23.4922 83.0078 23.6953C83.4714 23.8984 83.8333 24.2031 84.0938 24.6094C84.3542 25.0156 84.4844 25.526 84.4844 26.1406V30.2266C84.4844 30.5182 84.5052 30.8203 84.5469 31.1328C84.5938 31.4453 84.6589 31.7031 84.7422 31.9062V32H83.75C83.6875 31.8125 83.638 31.5781 83.6016 31.2969C83.5703 31.0104 83.5547 30.7396 83.5547 30.4844ZM83.7734 27.0781L83.7891 27.7969H81.9531C81.474 27.7969 81.0443 27.8411 80.6641 27.9297C80.2891 28.013 79.9714 28.138 79.7109 28.3047C79.4505 28.4661 79.25 28.6615 79.1094 28.8906C78.974 29.1198 78.9062 29.3802 78.9062 29.6719C78.9062 29.974 78.9818 30.25 79.1328 30.5C79.2891 30.75 79.5078 30.9505 79.7891 31.1016C80.0755 31.2474 80.4141 31.3203 80.8047 31.3203C81.3255 31.3203 81.7839 31.224 82.1797 31.0312C82.5807 30.8385 82.9115 30.5859 83.1719 30.2734C83.4323 29.9609 83.6068 29.6198 83.6953 29.25L84.1016 29.7891C84.0339 30.0495 83.9089 30.3177 83.7266 30.5938C83.5495 30.8646 83.3177 31.1198 83.0312 31.3594C82.7448 31.5938 82.4062 31.7865 82.0156 31.9375C81.6302 32.0833 81.1927 32.1562 80.7031 32.1562C80.151 32.1562 79.6693 32.0521 79.2578 31.8438C78.8516 31.6354 78.5339 31.3516 78.3047 30.9922C78.0807 30.6276 77.9688 30.2161 77.9688 29.7578C77.9688 29.3411 78.0573 28.9688 78.2344 28.6406C78.4115 28.3073 78.6667 28.026 79 27.7969C79.3385 27.5625 79.7448 27.3854 80.2188 27.2656C80.6979 27.1406 81.2344 27.0781 81.8281 27.0781H83.7734ZM90.1875 23.5469V24.3125H85.9531V23.5469H90.1875ZM87.5078 21.375H88.4375V29.9453C88.4375 30.3359 88.4896 30.6302 88.5938 30.8281C88.6979 31.026 88.8333 31.1589 89 31.2266C89.1667 31.2943 89.3464 31.3281 89.5391 31.3281C89.6797 31.3281 89.8151 31.3203 89.9453 31.3047C90.0755 31.2839 90.1927 31.263 90.2969 31.2422L90.3359 32.0312C90.2214 32.0677 90.0729 32.0964 89.8906 32.1172C89.7083 32.1432 89.526 32.1562 89.3438 32.1562C88.9844 32.1562 88.6667 32.0911 88.3906 31.9609C88.1146 31.8255 87.8984 31.5964 87.7422 31.2734C87.5859 30.9453 87.5078 30.5 87.5078 29.9375V21.375Z" fill="#ffffff"/>
</g>
<defs>
<clipPath id="clip0_271_3510">
<rect width="91" height="48" fill="white"/>
</clipPath>
</defs>
</svg>
