<svg width="178" height="192" viewBox="0 0 178 192" fill="none" xmlns="http://www.w3.org/2000/svg">
<path d="M1.48626 39.2887L0 38.4343L66.5654 0L68.0517 0.854417L1.48626 39.2887Z" fill="#F0F0F0"/>
<path d="M68.0514 0.855469V103.091L1.45728 141.54L1.486 39.2898L68.0514 0.855469Z" fill="#FAFAFA"/>
<path d="M67.693 1.47094V102.888L1.80968 140.942V39.5104L67.6643 1.49248M68.0233 0.875L1.48657 39.2878V141.538L68.0807 103.089V0.88936L68.0233 0.875Z" fill="#EBEBEB"/>
<path d="M1.48626 39.288L1.45753 141.538L0.0143739 140.705L0 38.4336L1.45753 39.2665L1.48626 39.288Z" fill="#E0E0E0"/>
<path d="M14.8843 67.0195C14.9202 67.0195 14.9489 67.0195 14.9705 67.0195C14.9827 67.0317 14.9922 67.0463 14.9984 67.0623C15.0046 67.0784 15.0073 67.0957 15.0064 67.1129V67.5078C15.0095 67.5532 15.0095 67.5988 15.0064 67.6442C15.0064 67.6873 14.9705 67.7519 14.9489 67.838L13.9078 71.6362C13.8978 71.6783 13.8834 71.7193 13.8647 71.7583C13.8461 71.7974 13.816 71.8299 13.7786 71.8516L13.4052 72.067C13.3934 72.0776 13.378 72.0835 13.3622 72.0835C13.3463 72.0835 13.3309 72.0776 13.3191 72.067C13.3055 72.056 13.295 72.0415 13.2887 72.0251C13.2824 72.0088 13.2805 71.991 13.2832 71.9737C13.2832 71.9737 13.2832 71.9378 13.2832 71.8947L14.3315 68.0893L12.8955 68.9007C12.8826 68.909 12.8677 68.9135 12.8524 68.9135C12.8371 68.9135 12.8221 68.909 12.8093 68.9007C12.7965 68.8874 12.7867 68.8716 12.7805 68.8543C12.7743 68.837 12.7719 68.8185 12.7734 68.8002V68.3837C12.7762 68.3386 12.7884 68.2946 12.8093 68.2545C12.8258 68.2122 12.8562 68.1768 12.8955 68.154L14.8843 67.0195Z" fill="#455A64"/>
<path d="M17.8068 66.9041V67.9667C17.7982 68.2081 17.7694 68.4482 17.7206 68.6847C17.6831 68.9036 17.6154 69.1163 17.5196 69.3166C17.4247 69.5175 17.3014 69.7037 17.1534 69.8694C16.9935 70.0458 16.807 70.196 16.6005 70.3146C16.4302 70.4193 16.2391 70.4854 16.0405 70.5085C15.9737 70.515 15.9063 70.5067 15.8431 70.4844C15.7798 70.4621 15.7222 70.4262 15.6743 70.3792C15.5696 70.2704 15.4996 70.133 15.4733 69.9843C15.4226 69.7897 15.396 69.5895 15.3943 69.3884C15.3943 69.2376 15.3943 69.0653 15.3943 68.8786C15.3943 68.6919 15.3943 68.5052 15.3943 68.3545C15.3975 68.1132 15.424 67.8727 15.4733 67.6365C15.5108 67.4153 15.5784 67.2003 15.6743 66.9975C15.8691 66.5712 16.1932 66.217 16.6005 65.9851C16.7664 65.8765 16.9561 65.81 17.1534 65.7912C17.2202 65.7847 17.2875 65.7929 17.3508 65.8153C17.414 65.8376 17.4717 65.8735 17.5196 65.9205C17.6265 66.0276 17.6969 66.1658 17.7206 66.3154C17.7705 66.5079 17.7994 66.7053 17.8068 66.9041ZM15.9974 68.9791C15.9887 69.1814 16.0412 69.3816 16.1482 69.5535C16.2415 69.6612 16.3851 69.654 16.6005 69.5535C16.7993 69.4451 16.9561 69.2732 17.0457 69.0653C17.1393 68.8221 17.1903 68.5647 17.1965 68.3042C17.1965 68.1534 17.1965 67.9811 17.1965 67.8016C17.1965 67.6221 17.1965 67.4498 17.1965 67.3062C17.2036 67.1018 17.1512 66.8998 17.0457 66.7246C16.9524 66.6169 16.8088 66.6241 16.6005 66.7246C16.3992 66.8353 16.2402 67.0095 16.1482 67.22C16.0553 67.4609 16.0043 67.7159 15.9974 67.9739C15.9974 68.1319 15.9974 68.297 15.9974 68.4837C15.9974 68.6704 15.9902 68.8283 15.9974 68.9791Z" fill="#455A64"/>
<path d="M18.9124 64.6684C18.9983 64.6118 19.097 64.5772 19.1996 64.5679C19.2724 64.564 19.3448 64.5814 19.4078 64.6182C19.4634 64.6604 19.5057 64.7177 19.5298 64.7833C19.5607 64.8611 19.5777 64.9437 19.5801 65.0274C19.5801 65.1279 19.5801 65.2356 19.5801 65.3577C19.5801 65.4798 19.5801 65.5875 19.5801 65.688C19.5774 65.7903 19.5605 65.8918 19.5298 65.9895C19.4999 66.0987 19.459 66.2045 19.4078 66.3055C19.3497 66.4089 19.2799 66.5053 19.1996 66.5926C19.1184 66.6839 19.021 66.7594 18.9124 66.8152C18.8255 66.8714 18.7275 66.9081 18.6252 66.9229C18.5547 66.9259 18.4849 66.9084 18.4241 66.8727C18.3646 66.8327 18.3193 66.7749 18.2949 66.7075C18.2665 66.629 18.2496 66.5468 18.2446 66.4634C18.2446 66.3629 18.2446 66.2552 18.2446 66.1331C18.2446 66.0111 18.2446 65.9034 18.2446 65.8029C18.2506 65.7008 18.2675 65.5997 18.2949 65.5013C18.3242 65.3909 18.3676 65.2847 18.4241 65.1854C18.4821 65.0836 18.5494 64.9875 18.6252 64.8982C18.7092 64.808 18.8059 64.7306 18.9124 64.6684ZM20.7145 63.7709C20.7331 63.7287 20.7547 63.6879 20.7792 63.6489C20.805 63.6149 20.8366 63.5858 20.8725 63.5627L21.1453 63.4119C21.1575 63.4056 21.1711 63.4023 21.1848 63.4023C21.1986 63.4023 21.2121 63.4056 21.2243 63.4119C21.229 63.4233 21.2315 63.4355 21.2315 63.4478C21.2315 63.4601 21.229 63.4724 21.2243 63.4837C21.2274 63.4979 21.2274 63.5126 21.2243 63.5268L19.0129 68.6964C18.9945 68.7363 18.9729 68.7748 18.9483 68.8113C18.9236 68.8489 18.8888 68.8788 18.8477 68.8974L18.5821 69.0554C18.5699 69.0617 18.5563 69.065 18.5426 69.065C18.5289 69.065 18.5153 69.0617 18.5031 69.0554C18.4974 69.0443 18.4945 69.032 18.4945 69.0195C18.4945 69.007 18.4974 68.9947 18.5031 68.9836V68.9405L20.7145 63.7709ZM19.1493 65.8818C19.1536 65.8437 19.1536 65.8051 19.1493 65.767V65.4439C19.1543 65.4057 19.1543 65.3671 19.1493 65.329C19.1527 65.2685 19.132 65.2092 19.0919 65.1638C19.0919 65.1208 18.9985 65.1638 18.9124 65.1638C18.8334 65.2077 18.7705 65.2756 18.7329 65.3577C18.702 65.4334 18.6826 65.5132 18.6754 65.5946C18.6754 65.5946 18.6754 65.6593 18.6754 65.7095V66.0326C18.6754 66.0829 18.6754 66.1188 18.6754 66.1403C18.6777 66.2021 18.6976 66.2619 18.7329 66.3126C18.7688 66.3485 18.8262 66.3126 18.9124 66.3126C18.9911 66.2719 19.0543 66.2063 19.0919 66.126C19.1288 66.0498 19.1484 65.9664 19.1493 65.8818ZM20.8581 65.6449C20.9431 65.5862 21.0423 65.5515 21.1453 65.5444C21.2158 65.5414 21.2856 65.5589 21.3464 65.5946C21.4043 65.6362 21.4492 65.6935 21.4756 65.7598C21.5034 65.8385 21.5203 65.9206 21.5259 66.0039C21.5259 66.1044 21.5259 66.2121 21.5259 66.3342C21.5259 66.4562 21.5259 66.5639 21.5259 66.6716C21.5185 66.7735 21.5017 66.8744 21.4756 66.9732C21.4463 67.0813 21.4028 67.1851 21.3464 67.2819C21.2884 67.3837 21.2211 67.4798 21.1453 67.5691C21.0594 67.6572 20.963 67.7344 20.8581 67.7989C20.7707 67.8525 20.6728 67.8868 20.571 67.8994C20.4978 67.9068 20.4244 67.8891 20.3627 67.8491C20.3071 67.8069 20.2648 67.7496 20.2407 67.684C20.2123 67.6055 20.1953 67.5233 20.1904 67.4399C20.1904 67.3394 20.1904 67.2317 20.1904 67.1168C20.1904 67.0019 20.1904 66.887 20.1904 66.7793C20.1964 66.6773 20.2132 66.5762 20.2407 66.4778C20.2706 66.3686 20.3115 66.2628 20.3627 66.1619C20.4208 66.0584 20.4906 65.962 20.571 65.8747C20.6538 65.7832 20.7508 65.7057 20.8581 65.6449ZM21.0951 66.8583V66.3055C21.0918 66.2461 21.0719 66.1889 21.0376 66.1403C21.0017 66.1403 20.9443 66.1403 20.8581 66.1403C20.778 66.1791 20.7143 66.2453 20.6786 66.327C20.6445 66.4016 20.625 66.482 20.6212 66.5639C20.6166 66.6021 20.6166 66.6407 20.6212 66.6788C20.6212 66.7291 20.6212 66.7865 20.6212 66.8439C20.6212 66.9014 20.6212 66.9516 20.6212 67.0019C20.6165 67.0377 20.6165 67.0739 20.6212 67.1096C20.6201 67.1719 20.6404 67.2327 20.6786 67.2819C20.6786 67.3178 20.772 67.2819 20.8581 67.2819C20.9352 67.2389 20.9976 67.1739 21.0376 67.0953C21.0677 67.0193 21.087 66.9396 21.0951 66.8583Z" fill="#455A64"/>
<path d="M11.5387 60.2381C9.87625 62.8184 8.68955 65.6757 8.03485 68.6745C7.73267 70.0665 7.57627 71.4862 7.56816 72.9107C7.55491 74.1587 7.71192 75.4027 8.03485 76.6084L10.433 74.1887C10.1878 73.3003 10.0694 72.3818 10.0811 71.4603C10.0866 70.4073 10.2045 69.3578 10.433 68.3299C10.9155 66.1148 11.7909 64.0041 13.0177 62.0977C14.0631 60.3824 15.4939 58.9344 17.1965 57.8687V54.5156C14.8904 55.9562 12.9529 57.9158 11.5387 60.2381Z" fill="#E0E0E0"/>
<path d="M26.372 58.1002C25.7402 55.8672 24.498 54.3451 22.8754 53.706C21.2527 53.067 19.3284 53.2968 17.2175 54.5174V57.8704C17.822 57.458 18.5131 57.1897 19.2376 57.0864C19.9621 56.9831 20.7006 57.0474 21.3963 57.2745C22.0508 57.5758 22.6256 58.0263 23.0744 58.5899C23.5233 59.1535 23.8339 59.8145 23.9811 60.5198C24.2228 61.4089 24.3412 62.3269 24.3329 63.2482C24.3247 64.3011 24.2068 65.3502 23.9811 66.3787C23.4985 68.5937 22.6231 70.7045 21.3963 72.6109C20.3489 74.3245 18.9185 75.772 17.2175 76.8399C16.6131 77.2523 15.9219 77.5205 15.1975 77.6239C14.473 77.7272 13.7345 77.6628 13.0388 77.4358C12.3843 77.1345 11.8095 76.684 11.3606 76.1204C10.9118 75.5568 10.6012 74.8958 10.454 74.1905L8.05591 76.6101C8.69492 78.8503 9.92988 80.3652 11.5597 81.0042C13.1896 81.6433 15.0995 81.4135 17.2175 80.1929C19.5244 78.7442 21.4616 76.7774 22.8754 74.4489C24.5332 71.8748 25.7174 69.025 26.372 66.034C26.68 64.6428 26.8389 63.2227 26.8459 61.7979C26.8605 60.5493 26.701 59.3047 26.372 58.1002Z" fill="#144C96"/>
<path d="M14.784 101.957C14.675 102.133 14.5448 102.295 14.3963 102.438C14.251 102.581 14.0895 102.706 13.9153 102.812C13.7454 102.911 13.5614 102.984 13.3696 103.027C13.2395 103.051 13.1053 103.039 12.9819 102.991C12.8809 102.948 12.7975 102.872 12.7449 102.776C12.6946 102.67 12.663 102.555 12.6516 102.438C12.6535 102.393 12.6657 102.349 12.6875 102.309C12.7086 102.27 12.738 102.236 12.7737 102.209L13.1255 102.008C13.1614 102.008 13.1829 102.008 13.2045 102.008C13.2286 102.03 13.2481 102.057 13.2619 102.087C13.2817 102.121 13.3059 102.152 13.3337 102.18C13.3703 102.204 13.4122 102.219 13.4558 102.223C13.517 102.239 13.5812 102.239 13.6424 102.223C13.7382 102.191 13.8298 102.148 13.9153 102.094C14.0917 101.997 14.242 101.859 14.3533 101.692C14.4641 101.545 14.5245 101.366 14.5256 101.182C14.5256 101.002 14.4681 100.909 14.3533 100.895C14.1963 100.891 14.0424 100.939 13.9153 101.031L13.5419 101.247C13.5036 101.247 13.4749 101.247 13.4558 101.247C13.4431 101.235 13.4333 101.22 13.4271 101.204C13.4209 101.188 13.4184 101.171 13.4199 101.153V100.694C13.4231 100.644 13.4353 100.595 13.4558 100.55C13.4744 100.506 13.496 100.462 13.5204 100.421L14.145 99.1788L12.9101 99.8968C12.8718 99.8968 12.8431 99.8968 12.8239 99.8968C12.8113 99.8849 12.8015 99.8704 12.7953 99.8542C12.7891 99.838 12.7866 99.8207 12.788 99.8034V99.3798C12.7899 99.3345 12.8022 99.2903 12.8239 99.2506C12.8405 99.2083 12.8708 99.1729 12.9101 99.1501L14.8702 98.0156C14.8702 98.0156 14.9348 98.0156 14.9564 98.0156C14.9639 98.03 14.9679 98.046 14.9679 98.0623C14.9679 98.0786 14.9639 98.0946 14.9564 98.109V98.5398C14.9658 98.5872 14.9658 98.636 14.9564 98.6834C14.9304 98.7266 14.9088 98.7723 14.8918 98.8198L14.2312 100.119C14.3464 100.067 14.4708 100.038 14.5974 100.033C14.6977 100.037 14.7949 100.069 14.8774 100.127C14.9628 100.189 15.0258 100.277 15.0569 100.378C15.1032 100.517 15.1251 100.662 15.1215 100.809C15.1227 101.016 15.0912 101.222 15.0282 101.419C14.9707 101.608 14.8886 101.789 14.784 101.957Z" fill="#455A64"/>
<path d="M16.2343 101.344C16.1001 101.35 15.9688 101.304 15.8681 101.215C15.7676 101.103 15.6982 100.967 15.6671 100.82C15.6195 100.622 15.593 100.42 15.5881 100.217C15.5881 100.073 15.5881 99.901 15.5881 99.7071C15.5881 99.5132 15.5881 99.3409 15.5881 99.183C15.5943 98.9418 15.6207 98.7017 15.6671 98.465C15.7069 98.242 15.7744 98.0249 15.8681 97.8188C15.9628 97.6156 16.0862 97.427 16.2343 97.2587C16.3934 97.0786 16.583 96.9279 16.7944 96.8136C16.917 96.7391 17.0501 96.6834 17.1893 96.6484V97.5172C17.0959 97.4526 16.9739 97.4526 16.7944 97.5603C16.5922 97.6644 16.4342 97.8377 16.3492 98.0485C16.2496 98.2902 16.196 98.5483 16.1912 98.8096C16.1912 98.9604 16.1912 99.1327 16.1912 99.3122C16.1912 99.4917 16.1912 99.664 16.1912 99.8148C16.1833 100.018 16.2384 100.219 16.3492 100.389C16.4354 100.497 16.579 100.49 16.7944 100.389C16.9598 100.293 17.0962 100.154 17.1893 99.9871V100.842C17.0683 100.953 16.9359 101.052 16.7944 101.136C16.6265 101.248 16.4347 101.319 16.2343 101.344Z" fill="#455A64"/>
<path d="M17.2397 99.9026C17.3326 99.6617 17.3836 99.4068 17.3905 99.1487C17.3905 98.9907 17.3905 98.8256 17.3905 98.6389C17.3905 98.4522 17.3905 98.2943 17.3905 98.1435C17.3979 97.9414 17.3455 97.7415 17.2397 97.5691C17.2397 97.5691 17.2397 97.5691 17.1895 97.5691V96.7003C17.2419 96.6936 17.295 96.6936 17.3474 96.7003C17.4142 96.6938 17.4816 96.702 17.5448 96.7244C17.6081 96.7467 17.6657 96.7826 17.7136 96.8296C17.8179 96.9396 17.89 97.0762 17.9218 97.2245C17.9655 97.4204 17.9919 97.6198 18.0008 97.8204V98.883C17.9908 99.1239 17.9644 99.3638 17.9218 99.601C17.8796 99.8196 17.8096 100.032 17.7136 100.233C17.6208 100.435 17.4973 100.621 17.3474 100.786C17.2972 100.843 17.2397 100.886 17.1895 100.936V99.9744C17.1895 99.9744 17.2254 99.9744 17.2397 99.9026Z" fill="#455A64"/>
<path d="M19.6019 95.488C19.5411 95.4455 19.4676 95.4252 19.3936 95.4305C19.2939 95.4425 19.1982 95.4769 19.1136 95.531C19.0035 95.5938 18.9041 95.6738 18.8193 95.768C18.7402 95.8547 18.6727 95.9512 18.6182 96.0552C18.5641 96.1522 18.523 96.2561 18.4962 96.3639C18.468 96.4625 18.4487 96.5634 18.4387 96.6655C18.4387 96.7732 18.4387 96.8881 18.4387 97.0029C18.4387 97.1178 18.4387 97.2327 18.4387 97.3332C18.4459 97.4146 18.4653 97.4945 18.4962 97.5701C18.5178 97.637 18.5607 97.695 18.6182 97.7353C18.676 97.7778 18.7482 97.7959 18.8193 97.7855C18.9243 97.7774 19.0256 97.7428 19.1136 97.685C19.2191 97.6246 19.3138 97.5469 19.3936 97.4553C19.4754 97.3718 19.5454 97.2776 19.6019 97.1753C19.6549 97.0751 19.6958 96.9691 19.7239 96.8593C19.7535 96.7614 19.7704 96.66 19.7742 96.5578C19.7742 96.4501 19.7742 96.3424 19.7742 96.2203C19.7742 96.0983 19.7742 95.9977 19.7742 95.8972C19.7736 95.8133 19.7565 95.7304 19.7239 95.6531C19.7023 95.5862 19.6594 95.5283 19.6019 95.488ZM19.3506 96.6296V96.7445C19.3444 96.8268 19.3224 96.9073 19.286 96.9814C19.2506 97.0609 19.1901 97.1265 19.1136 97.1681C19.0203 97.2183 18.9629 97.2255 18.9341 97.1681C18.8943 97.122 18.8715 97.0638 18.8695 97.0029C18.8723 96.9647 18.8723 96.9263 18.8695 96.888V96.565C18.8726 96.5267 18.8726 96.4883 18.8695 96.4501C18.8757 96.3677 18.8977 96.2873 18.9341 96.2131C18.9698 96.1315 19.0334 96.0653 19.1136 96.0265C19.1926 95.9762 19.2572 95.969 19.286 96.0265C19.3268 96.0747 19.3496 96.1356 19.3506 96.1988V96.6296Z" fill="#455A64"/>
<path d="M20.3845 97.6432C20.3845 97.7509 20.3845 97.8658 20.3845 97.9807C20.3845 98.0955 20.3845 98.2104 20.3845 98.3109C20.3901 98.3942 20.407 98.4764 20.4348 98.5551C20.4611 98.6194 20.503 98.6762 20.5568 98.7202C20.6201 98.7562 20.6923 98.7736 20.7651 98.7705C20.8672 98.7546 20.9649 98.718 21.0523 98.6628C21.1599 98.6024 21.2569 98.5248 21.3394 98.433C21.419 98.3494 21.4867 98.2551 21.5405 98.153C21.597 98.0537 21.6404 97.9475 21.6697 97.8371C21.6958 97.7383 21.7126 97.6374 21.72 97.5355C21.72 97.4278 21.72 97.3201 21.72 97.1981C21.72 97.076 21.72 96.9755 21.72 96.875C21.7158 96.7915 21.6989 96.7092 21.6697 96.6308C21.6453 96.5635 21.6 96.5056 21.5405 96.4657C21.4874 96.4171 21.4186 96.3891 21.3466 96.3867C21.2439 96.3951 21.145 96.4297 21.0594 96.4872C20.949 96.5434 20.8512 96.6216 20.7722 96.717C20.6138 96.8847 20.5002 97.0897 20.442 97.3129C20.4117 97.4208 20.3924 97.5315 20.3845 97.6432ZM20.8081 97.7294V97.5714C20.8036 97.5308 20.8036 97.4899 20.8081 97.4493C20.8127 97.3675 20.8322 97.2872 20.8656 97.2124C20.9032 97.1321 20.9663 97.0665 21.0451 97.0257C21.1312 96.9755 21.1887 96.9683 21.2246 97.0257C21.2598 97.0765 21.2797 97.1363 21.282 97.1981C21.282 97.1981 21.282 97.2555 21.282 97.3058V97.6288C21.282 97.6863 21.282 97.7222 21.282 97.7437C21.2748 97.8251 21.2554 97.905 21.2246 97.9807C21.1869 98.0628 21.124 98.1307 21.0451 98.1745C20.9589 98.2248 20.8943 98.232 20.8656 98.1745C20.8283 98.1275 20.8081 98.0693 20.8081 98.0094C20.8032 97.9713 20.8032 97.9326 20.8081 97.8945V97.7294Z" fill="#455A64"/>
<path d="M18.6898 99.8012L20.9085 94.6388C20.9254 94.5959 20.9471 94.5549 20.9731 94.5167C20.9968 94.4809 21.0288 94.4513 21.0664 94.4306L21.3392 94.2726C21.3647 94.2633 21.3927 94.2633 21.4182 94.2726C21.423 94.284 21.4254 94.2962 21.4254 94.3085C21.4254 94.3209 21.423 94.3331 21.4182 94.3444C21.4216 94.3562 21.4216 94.3686 21.4182 94.3803C21.4213 94.3945 21.4213 94.4092 21.4182 94.4234L19.1924 99.5714C19.1739 99.6137 19.1523 99.6544 19.1278 99.6935C19.1032 99.7312 19.0683 99.7611 19.0273 99.7797L18.7616 99.9376C18.7257 99.9376 18.7042 99.9376 18.6827 99.9376C18.6611 99.9376 18.6827 99.9376 18.6827 99.873V99.8371C18.6872 99.8257 18.6897 99.8135 18.6898 99.8012Z" fill="#455A64"/>
<path d="M17.1966 88.8491L17.1895 88.8563V85.5033L17.1966 85.4961V88.8491Z" fill="#144C96"/>
<path d="M24.3119 94.2301C24.3191 93.3089 24.2008 92.391 23.9601 91.5017C23.814 90.7969 23.5038 90.1363 23.0547 89.5737C22.6056 89.0111 22.0302 88.5623 21.3753 88.2636C20.6804 88.0333 19.9418 87.9667 19.217 88.0688C18.4921 88.1709 17.8007 88.4391 17.1965 88.8523V85.4993C19.3074 84.2787 21.2676 84.0633 22.8543 84.688C24.4411 85.3126 25.7263 86.842 26.351 89.0821C26.68 90.2866 26.8395 91.5312 26.8249 92.7798C26.8179 94.2047 26.659 95.6247 26.351 97.016L23.9601 97.3606C24.1858 96.3322 24.3037 95.283 24.3119 94.2301Z" fill="#144C96"/>
<path d="M17.1966 107.812V111.166L17.1895 111.173V107.82L17.1966 107.812Z" fill="#144C96"/>
<path d="M11.5387 91.2113C9.8774 93.7922 8.69079 96.6493 8.0349 99.6478C7.73349 101.04 7.5771 102.46 7.56821 103.884C7.55451 105.132 7.71153 106.376 8.0349 107.582C8.67392 109.822 9.90887 111.344 11.5387 111.983C13.1686 112.622 15.0784 112.385 17.1893 111.172V107.819C16.5849 108.228 15.8948 108.494 15.1718 108.596C14.4488 108.698 13.712 108.634 13.0178 108.407C12.3626 108.107 11.7873 107.657 11.3383 107.093C10.8893 106.529 10.5792 105.868 10.433 105.162C10.1879 104.274 10.0694 103.355 10.0812 102.434C10.0866 101.381 10.2046 100.331 10.433 99.3032C10.9169 97.0885 11.7922 94.978 13.0178 93.071C14.062 91.3591 15.4901 89.9137 17.1893 88.8491V85.4961C14.889 86.9384 12.9548 88.8948 11.5387 91.2113Z" fill="#E0E0E0"/>
<path d="M23.96 97.3525C23.4661 99.562 22.581 101.665 21.3465 103.563C20.299 105.277 18.8687 106.724 17.1677 107.792V111.145C19.4736 109.695 21.4106 107.729 22.8255 105.401C24.4968 102.836 25.6978 99.994 26.3724 97.0078L23.96 97.3525Z" fill="#E0E0E0"/>
<path d="M35.8853 50.1948C35.8404 50.2055 35.7937 50.2055 35.7488 50.1948C35.7069 50.1706 35.6717 50.1362 35.6466 50.0948C35.6215 50.0533 35.6072 50.0062 35.6052 49.9578V44.6878C35.6058 44.639 35.6195 44.5914 35.6447 44.5497C35.67 44.508 35.7059 44.4739 35.7488 44.4508L40.265 41.8373C40.3073 41.8159 40.354 41.8047 40.4015 41.8047C40.4489 41.8047 40.4956 41.8159 40.5379 41.8373C40.5809 41.8621 40.6167 41.8977 40.6418 41.9404C40.667 41.9832 40.6807 42.0318 40.6815 42.0814V47.2941C40.6807 47.3437 40.667 47.3923 40.6418 47.4351C40.6167 47.4779 40.5809 47.5134 40.5379 47.5382L36.0217 50.1445C35.9811 50.1724 35.9342 50.1897 35.8853 50.1948ZM36.1653 44.8601V49.4337L40.1214 47.1505V42.5768L36.1653 44.8601Z" fill="#E0E0E0"/>
<path d="M40.9326 40.7857C40.8662 40.7574 40.7948 40.7427 40.7227 40.7422C40.6505 40.7417 40.579 40.7556 40.5122 40.783C40.4454 40.8104 40.3847 40.8507 40.3337 40.9017C40.2826 40.9527 40.2421 41.0133 40.2146 41.08L38.1468 46.0055L37.6514 45.5244C37.6006 45.4732 37.5403 45.4325 37.4737 45.4048C37.4072 45.377 37.3358 45.3627 37.2637 45.3627C37.1916 45.3627 37.1202 45.377 37.0536 45.4048C36.9871 45.4325 36.9267 45.4732 36.876 45.5244C36.8249 45.5746 36.7844 45.6343 36.7568 45.7003C36.7291 45.7662 36.7148 45.837 36.7148 45.9086C36.7148 45.9801 36.7291 46.0509 36.7568 46.1168C36.7844 46.1828 36.8249 46.2426 36.876 46.2927L37.9386 47.3338C38.0429 47.434 38.1816 47.4905 38.3263 47.4917H38.434C38.5212 47.4741 38.6027 47.4355 38.6715 47.3792C38.7404 47.3229 38.7944 47.2506 38.8289 47.1686L41.2127 41.5037C41.2705 41.3713 41.2735 41.2214 41.2211 41.0868C41.1686 40.9522 41.0648 40.8439 40.9326 40.7857Z" fill="#144C96"/>
<path d="M44.2429 41.6992L60.8358 32.0996C61.2307 31.8698 61.5538 32.035 61.5538 32.4729C61.5357 32.7149 61.4614 32.9493 61.3368 33.1575C61.2121 33.3657 61.0406 33.5418 60.8358 33.672L44.2429 43.2501C43.8408 43.4798 43.5249 43.3147 43.5249 42.8839C43.544 42.6441 43.6189 42.4122 43.7435 42.2065C43.8682 42.0008 44.0392 41.8271 44.2429 41.6992Z" fill="#E0E0E0"/>
<path d="M35.8853 58.0207C35.8404 58.0314 35.7937 58.0314 35.7488 58.0207C35.7058 57.9959 35.67 57.9604 35.6448 57.9176C35.6197 57.8748 35.606 57.8262 35.6052 57.7766V52.5639C35.606 52.5143 35.6197 52.4657 35.6448 52.4229C35.67 52.3802 35.7058 52.3446 35.7488 52.3198L40.265 49.7135C40.3063 49.6888 40.3534 49.6758 40.4015 49.6758C40.4495 49.6758 40.4966 49.6888 40.5379 49.7135C40.5809 49.7383 40.6167 49.7738 40.6418 49.8166C40.667 49.8594 40.6807 49.908 40.6815 49.9576V55.1703C40.6816 55.2191 40.6683 55.2671 40.643 55.3089C40.6177 55.3507 40.5813 55.3847 40.5379 55.4072L36.0217 58.0207C35.9768 58.0314 35.9301 58.0314 35.8853 58.0207ZM36.1653 52.686V57.2596L40.1214 54.9764V50.4315L36.1653 52.686Z" fill="#E0E0E0"/>
<path d="M40.9327 48.606C40.8663 48.5777 40.7949 48.563 40.7227 48.5625C40.6506 48.562 40.579 48.5759 40.5123 48.6033C40.4455 48.6307 40.3848 48.671 40.3337 48.722C40.2827 48.773 40.2422 48.8336 40.2147 48.9004L38.1469 53.8258L37.6515 53.3519C37.6001 53.302 37.5393 53.2626 37.4727 53.2361C37.4061 53.2096 37.335 53.1965 37.2633 53.1975C37.1186 53.1995 36.9806 53.2589 36.8796 53.3627C36.7787 53.4665 36.7231 53.6061 36.7252 53.7509C36.7272 53.8956 36.7866 54.0336 36.8904 54.1345L37.953 55.1756C38.0581 55.2738 38.1969 55.3278 38.3408 55.3264H38.4484C38.5356 55.3088 38.6172 55.2702 38.686 55.2139C38.7548 55.1576 38.8088 55.0853 38.8433 55.0033L41.2271 49.3312C41.2554 49.2642 41.2703 49.1923 41.2709 49.1197C41.2714 49.047 41.2577 48.9749 41.2303 48.9075C41.203 48.8402 41.1626 48.7789 41.1115 48.7271C41.0605 48.6754 40.9997 48.6342 40.9327 48.606Z" fill="#144C96"/>
<path d="M44.2428 49.4976L60.8357 39.9052C61.2306 39.6682 61.5537 39.8334 61.5537 40.2713C61.5362 40.5144 61.4621 40.75 61.3375 40.9595C61.2128 41.1689 61.041 41.3463 60.8357 41.4776L44.2141 51.07C43.812 51.2998 43.4961 51.1346 43.4961 50.7038C43.5151 50.4577 43.5928 50.2197 43.7227 50.0098C43.8526 49.8 44.031 49.6243 44.2428 49.4976Z" fill="#E0E0E0"/>
<path d="M35.8853 65.8457C35.8364 65.8457 35.7888 65.8307 35.7488 65.8026C35.7059 65.7795 35.67 65.7454 35.6447 65.7037C35.6195 65.662 35.6058 65.6144 35.6052 65.5656V60.3458C35.6072 60.2974 35.6215 60.2503 35.6466 60.2089C35.6717 60.1674 35.7069 60.133 35.7488 60.1089L40.265 57.5025C40.3063 57.4779 40.3534 57.4648 40.4015 57.4648C40.4495 57.4648 40.4966 57.4779 40.5379 57.5025C40.5808 57.5256 40.6167 57.5598 40.642 57.6014C40.6672 57.6431 40.6809 57.6908 40.6815 57.7395V62.9593C40.6794 63.0077 40.6652 63.0548 40.6401 63.0962C40.615 63.1377 40.5799 63.1721 40.5379 63.1962L36.0217 65.8026C35.9817 65.8307 35.9341 65.8457 35.8853 65.8457ZM36.1653 60.5109V65.0846L40.1214 62.7942V58.2205L36.1653 60.5109Z" fill="#E0E0E0"/>
<path d="M40.9325 56.4302C40.8661 56.402 40.7947 56.3872 40.7225 56.3867C40.6504 56.3863 40.5788 56.4001 40.5121 56.4275C40.4453 56.4549 40.3846 56.4952 40.3335 56.5462C40.2824 56.5972 40.242 56.6578 40.2145 56.7246L38.1467 61.65L37.6512 61.169C37.5478 61.0672 37.4086 61.0102 37.2635 61.0102C37.1185 61.0102 36.9792 61.0672 36.8758 61.169C36.8246 61.2197 36.7839 61.2801 36.7562 61.3466C36.7284 61.4132 36.7141 61.4846 36.7141 61.5567C36.7141 61.6288 36.7284 61.7002 36.7562 61.7667C36.7839 61.8333 36.8246 61.8937 36.8758 61.9444L37.9384 62.9783C38.0428 63.0785 38.1815 63.135 38.3262 63.1363H38.4339C38.521 63.1187 38.6026 63.08 38.6714 63.0237C38.7402 62.9674 38.7943 62.8951 38.8288 62.8132L41.2125 57.1482C41.2704 57.0158 41.2734 56.8659 41.2209 56.7313C41.1684 56.5967 41.0647 56.4884 40.9325 56.4302Z" fill="#144C96"/>
<path d="M44.2428 57.2938L60.8357 47.7013C61.2306 47.4716 61.5537 47.6367 61.5537 48.0675C61.5367 48.3107 61.4629 48.5466 61.3382 48.7561C61.2135 48.9656 61.0414 49.1429 60.8357 49.2738L44.2141 58.8662C43.812 59.0959 43.4961 58.9308 43.4961 58.5C43.5168 58.2543 43.5952 58.0171 43.7249 57.8074C43.8547 57.5978 44.0322 57.4218 44.2428 57.2938Z" fill="#E0E0E0"/>
<path d="M38.0899 98.8195L35.4045 100.37V70.3438L38.0899 68.793V98.8195Z" fill="#E0E0E0"/>
<path d="M42.8284 96.0813L40.1431 97.6322V67.6056L42.8284 66.0547V96.0813Z" fill="#E0E0E0"/>
<path d="M47.5674 93.3469L44.8821 94.8978V64.8712L47.5674 63.3203V93.3469Z" fill="#E0E0E0"/>
<path d="M52.3059 90.6086L49.6206 92.1595V62.1329L52.3059 60.582V90.6086Z" fill="#E0E0E0"/>
<path d="M57.0447 87.8742L54.3594 89.4179V59.3985L57.0447 57.8477V87.8742Z" fill="#E0E0E0"/>
<path d="M61.7835 85.1327L59.0981 86.6836V56.657L61.7835 55.1133V85.1327Z" fill="#E0E0E0"/>
<path d="M59.0981 56.657L61.7835 55.1133V68.8127L59.0981 70.3635V56.657Z" fill="#144C96"/>
<path d="M35.4045 76.8985L38.0899 75.3477V92.1129L35.4045 93.6637V76.8985Z" fill="#144C96"/>
<path opacity="0.15" d="M35.4045 93.6602L38.0899 92.1094V98.8155L35.4045 100.366V93.6602Z" fill="black"/>
<path d="M40.1431 77.9767L42.8284 76.4258V82.457L40.1431 84.0078V77.9767Z" fill="#144C96"/>
<path opacity="0.15" d="M40.1431 84.004L42.8284 82.4531V96.0807L40.1431 97.6316V84.004Z" fill="black"/>
<path d="M44.8821 67.3868L47.5674 65.8359V71.0988L44.8821 72.6497V67.3868Z" fill="#144C96"/>
<path opacity="0.15" d="M44.8821 72.6446L47.5674 71.0938V93.3444L44.8821 94.8953V72.6446Z" fill="black"/>
<path d="M49.6206 68.6876L52.3059 67.1367V80.4053L49.6206 81.9562V68.6876Z" fill="#144C96"/>
<path opacity="0.15" d="M49.6206 81.961L52.3059 80.4102V90.6129L49.6206 92.1637V81.961Z" fill="black"/>
<path d="M54.3594 71.3399L57.0447 69.7891V75.4038L54.3594 76.9547V71.3399Z" fill="#144C96"/>
<path opacity="0.15" d="M54.3594 76.9532L57.0447 75.4023V87.8739L54.3594 89.4176V76.9532Z" fill="black"/>
<path opacity="0.15" d="M59.0981 70.3634L61.7835 68.8125V85.1325L59.0981 86.6834V70.3634Z" fill="black"/>
<path d="M35.4045 93.6602L38.0899 92.1094V98.8155L35.4045 100.366V93.6602Z" fill="#144C96"/>
<path opacity="0.2" d="M35.4045 93.6602L38.0899 92.1094V98.8155L35.4045 100.366V93.6602Z" fill="black"/>
<path d="M40.1431 84.004L42.8284 82.4531V96.0807L40.1431 97.6316V84.004Z" fill="#144C96"/>
<path opacity="0.2" d="M40.1431 84.004L42.8284 82.4531V96.0807L40.1431 97.6316V84.004Z" fill="black"/>
<path d="M44.8821 72.6446L47.5674 71.0938V93.3444L44.8821 94.8953V72.6446Z" fill="#144C96"/>
<path opacity="0.2" d="M44.8821 72.6446L47.5674 71.0938V93.3444L44.8821 94.8953V72.6446Z" fill="black"/>
<path d="M49.6206 81.961L52.3059 80.4102V90.6129L49.6206 92.1637V81.961Z" fill="#144C96"/>
<path opacity="0.2" d="M49.6206 81.961L52.3059 80.4102V90.6129L49.6206 92.1637V81.961Z" fill="black"/>
<path d="M54.3594 76.9532L57.0447 75.4023V87.8739L54.3594 89.4176V76.9532Z" fill="#144C96"/>
<path opacity="0.2" d="M54.3594 76.9532L57.0447 75.4023V87.8739L54.3594 89.4176V76.9532Z" fill="black"/>
<path d="M59.0981 70.3634L61.7835 68.8125V85.1325L59.0981 86.6834V70.3634Z" fill="#144C96"/>
<path opacity="0.2" d="M59.0981 70.3634L61.7835 68.8125V85.1325L59.0981 86.6834V70.3634Z" fill="black"/>
<path d="M6.33287 46.8907C6.25453 46.8899 6.17859 46.8635 6.11665 46.8155C6.05471 46.7675 6.01019 46.7006 5.98985 46.6249C5.96951 46.5493 5.97448 46.469 6.004 46.3965C6.03353 46.3239 6.08599 46.263 6.15337 46.223L62.9899 13.3172C63.0719 13.2701 63.1692 13.2573 63.2606 13.2815C63.352 13.3057 63.4302 13.365 63.4782 13.4465C63.5256 13.5296 63.5387 13.6279 63.5145 13.7205C63.4904 13.8131 63.4309 13.8926 63.3489 13.9419L6.51237 46.8405C6.45844 46.8737 6.39624 46.8912 6.33287 46.8907Z" fill="#E0E0E0"/>
<path d="M6.33287 50.2068C6.25453 50.206 6.17859 50.1796 6.11665 50.1316C6.05471 50.0836 6.01019 50.0167 5.98985 49.941C5.96951 49.8653 5.97448 49.7851 6.004 49.7125C6.03353 49.6399 6.08599 49.579 6.15337 49.539L62.9899 16.6333C63.0732 16.5887 63.1705 16.5779 63.2615 16.6034C63.3525 16.6288 63.4301 16.6884 63.4782 16.7697C63.5253 16.8517 63.5381 16.949 63.5139 17.0404C63.4897 17.1318 63.4304 17.21 63.3489 17.2579L6.50518 50.1637C6.45159 50.1905 6.39277 50.2052 6.33287 50.2068Z" fill="#E0E0E0"/>
<path d="M6.33302 53.535C6.27037 53.5347 6.20891 53.5179 6.15475 53.4864C6.10058 53.4549 6.05561 53.4098 6.02429 53.3555C5.97682 53.2724 5.96378 53.1741 5.98793 53.0815C6.01209 52.9889 6.07152 52.9094 6.15352 52.8601L62.9901 19.9615C63.0711 19.9249 63.1627 19.9197 63.2474 19.9468C63.332 19.9739 63.4036 20.0314 63.4483 20.1082C63.493 20.1851 63.5075 20.2757 63.4892 20.3627C63.4709 20.4497 63.4209 20.5268 63.3491 20.579L6.50533 53.4848C6.45214 53.5136 6.39339 53.5308 6.33302 53.535Z" fill="#E0E0E0"/>
<path d="M6.33287 123.301C6.25453 123.3 6.17859 123.274 6.11665 123.226C6.05471 123.178 6.01019 123.111 5.98985 123.035C5.96951 122.96 5.97448 122.879 6.004 122.807C6.03353 122.734 6.08599 122.673 6.15337 122.633L62.9899 89.7276C63.0728 89.68 63.1711 89.6672 63.2634 89.6921C63.3556 89.7171 63.4341 89.7776 63.4817 89.8604C63.5294 89.9433 63.5421 90.0416 63.5172 90.1339C63.4923 90.2261 63.4318 90.3046 63.3489 90.3523L6.50518 123.258C6.45159 123.285 6.39277 123.3 6.33287 123.301Z" fill="#E0E0E0"/>
<path d="M6.33302 126.625C6.27037 126.625 6.20891 126.608 6.15475 126.576C6.10058 126.545 6.05561 126.5 6.02429 126.445C5.97682 126.362 5.96378 126.264 5.98793 126.171C6.01209 126.079 6.07152 125.999 6.15352 125.95L62.9901 93.0514C63.0711 93.0148 63.1627 93.0095 63.2474 93.0366C63.332 93.0637 63.4036 93.1213 63.4483 93.1981C63.493 93.2749 63.5075 93.3656 63.4892 93.4526C63.4709 93.5395 63.4209 93.6166 63.3491 93.6689L6.50533 126.575C6.45214 126.603 6.39339 126.621 6.33302 126.625Z" fill="#E0E0E0"/>
<path d="M6.33287 129.944C6.25453 129.943 6.17859 129.917 6.11665 129.869C6.05471 129.821 6.01019 129.754 5.98985 129.678C5.96951 129.603 5.97448 129.523 6.004 129.45C6.03353 129.377 6.08599 129.316 6.15337 129.276L62.9899 96.3851C63.0306 96.3555 63.0769 96.3348 63.126 96.3243C63.1752 96.3138 63.226 96.3138 63.2751 96.3241C63.3243 96.3345 63.3707 96.355 63.4114 96.3845C63.4521 96.4139 63.4862 96.4515 63.5114 96.495C63.5367 96.5384 63.5525 96.5866 63.558 96.6366C63.5634 96.6865 63.5583 96.737 63.543 96.7849C63.5277 96.8327 63.5025 96.8768 63.469 96.9143C63.4356 96.9518 63.3947 96.9819 63.3489 97.0025L6.50518 129.908C6.45193 129.935 6.39248 129.948 6.33287 129.944Z" fill="#E0E0E0"/>
<path opacity="0.1" d="M68.0517 103.09V58.7031L23.6006 84.3715L23.5862 128.758L68.0517 103.09Z" fill="black"/>
<path d="M31.1393 89.5231L29.6531 88.6687L96.2185 50.2344L97.7047 51.0888L31.1393 89.5231Z" fill="#F0F0F0"/>
<path d="M97.7047 51.0898V153.325L31.1106 191.774L31.1393 89.5242L97.7047 51.0898Z" fill="#FAFAFA"/>
<path d="M97.3529 51.7022V153.112L31.4624 191.166V89.7344L97.3242 51.6806M97.676 51.0703L31.1106 89.5046V191.754L97.7047 153.306V51.0919L97.676 51.0703Z" fill="#EBEBEB"/>
<path d="M31.1393 89.5224L31.1106 191.772L29.6674 190.939L29.6531 88.668L31.1106 89.5008L31.1393 89.5224Z" fill="#E0E0E0"/>
<path d="M40.574 159.966L37.5943 161.682C37.4918 161.758 37.4081 161.856 37.3495 161.97C37.291 162.083 37.2593 162.208 37.2568 162.336V162.4C37.2568 162.651 37.4076 162.766 37.5943 162.659L40.574 160.943C40.6773 160.868 40.7616 160.769 40.8202 160.656C40.8788 160.543 40.91 160.417 40.9114 160.289V160.225C40.9114 159.973 40.7319 159.858 40.574 159.966Z" fill="#455A64"/>
<path d="M47.043 156.232L44.0633 157.948C43.96 158.023 43.8756 158.121 43.817 158.234C43.7585 158.348 43.7272 158.474 43.7258 158.601V158.666C43.7258 158.917 43.8766 159.032 44.0633 158.924L47.043 157.208C47.1455 157.132 47.2292 157.034 47.2877 156.921C47.3462 156.808 47.3779 156.682 47.3804 156.555V156.49C47.3804 156.239 47.2296 156.124 47.043 156.232Z" fill="#455A64"/>
<path d="M53.512 152.497L50.5324 154.213C50.4281 154.288 50.3427 154.386 50.2829 154.499C50.2231 154.613 50.1905 154.739 50.1877 154.867V154.931C50.1877 155.183 50.3457 155.298 50.5324 155.19L53.512 153.467C53.6152 153.393 53.6996 153.296 53.7582 153.184C53.8169 153.072 53.8481 152.947 53.8495 152.821V152.756C53.8495 152.505 53.6987 152.39 53.512 152.497Z" fill="#455A64"/>
<path d="M59.9739 148.799L56.9942 150.515C56.8909 150.59 56.8066 150.688 56.748 150.802C56.6894 150.915 56.6581 151.041 56.6567 151.169V151.233C56.6567 151.485 56.8075 151.599 56.9942 151.492L59.9739 149.769C60.078 149.695 60.1634 149.599 60.2233 149.487C60.2831 149.374 60.3158 149.25 60.3185 149.122V149.051C60.3185 148.799 60.1606 148.656 59.9739 148.799Z" fill="#455A64"/>
<path d="M66.4429 145.029L63.4632 146.745C63.3608 146.819 63.2771 146.916 63.2185 147.029C63.16 147.141 63.1282 147.265 63.1257 147.391V147.463C63.1257 147.714 63.2765 147.829 63.4632 147.722L66.4429 145.998C66.546 145.925 66.6304 145.828 66.689 145.716C66.7477 145.603 66.779 145.479 66.7803 145.352V145.28C66.7803 145.029 66.6295 144.914 66.4429 145.029Z" fill="#455A64"/>
<path d="M72.9125 141.29L69.9328 143.014C69.8295 143.088 69.7447 143.184 69.6849 143.296C69.6251 143.408 69.592 143.533 69.5881 143.66V143.732C69.5881 143.983 69.7461 144.098 69.9328 143.99L72.9125 142.267C73.0156 142.193 73.1 142.097 73.1586 141.984C73.2173 141.872 73.2485 141.747 73.2499 141.621V141.549C73.2499 141.298 73.0991 141.183 72.9125 141.29Z" fill="#455A64"/>
<path d="M79.3743 137.556L76.4018 139.279C76.2964 139.351 76.21 139.447 76.15 139.56C76.09 139.672 76.0581 139.798 76.0571 139.925V139.997C76.0571 140.249 76.2079 140.363 76.4018 140.256L79.3743 138.532C79.4788 138.46 79.5645 138.363 79.6244 138.251C79.6843 138.139 79.7167 138.014 79.7189 137.886V137.815C79.7189 137.563 79.5681 137.448 79.3743 137.556Z" fill="#455A64"/>
<path d="M85.8433 133.823L82.8636 135.546C82.7604 135.619 82.6761 135.716 82.6174 135.828C82.5588 135.941 82.5275 136.065 82.5261 136.192V136.264C82.5261 136.508 82.6769 136.63 82.8636 136.515L85.8433 134.799C85.9466 134.724 86.0309 134.626 86.0895 134.512C86.1481 134.399 86.1793 134.273 86.1807 134.146V134.081C86.1807 133.83 86.0299 133.722 85.8433 133.823Z" fill="#455A64"/>
<path d="M92.3127 130.09L89.3331 131.814C89.2299 131.887 89.1456 131.984 89.0869 132.096C89.0283 132.208 88.997 132.333 88.9956 132.46V132.532C88.9956 132.776 89.1464 132.891 89.3331 132.783L92.3127 131.067C92.4161 130.992 92.5004 130.894 92.559 130.78C92.6176 130.667 92.6488 130.541 92.6502 130.413V130.349C92.6502 130.133 92.4994 129.983 92.3127 130.09Z" fill="#455A64"/>
<path d="M37.1416 151.169L40.8105 149.051V155.075L37.1416 157.186V151.169Z" fill="#144C96"/>
<path d="M43.6108 141.224L47.2726 139.113V151.341L43.6108 153.452V141.224Z" fill="#144C96"/>
<path opacity="0.8" d="M43.6108 141.224L47.2726 139.113V151.341L43.6108 153.452V141.224Z" fill="white"/>
<path d="M50.073 129.759L53.7419 127.641V147.608L50.073 149.719V129.759Z" fill="#144C96"/>
<path opacity="0.3" d="M50.073 129.759L53.7419 127.641V147.608L50.073 149.719V129.759Z" fill="white"/>
<path d="M56.542 136.834L60.2038 134.723V143.877L56.542 145.995V136.834Z" fill="#144C96"/>
<path opacity="0.6" d="M56.542 136.834L60.2038 134.723V143.877L56.542 145.995V136.834Z" fill="white"/>
<path d="M63.0039 131.064L66.6657 128.953V140.14L63.0039 142.258V131.064Z" fill="#144C96"/>
<path opacity="0.8" d="M63.0039 131.064L66.6657 128.953V140.14L63.0039 142.258V131.064Z" fill="white"/>
<path d="M69.4729 123.88L73.1347 121.762V136.409L69.4729 138.527V123.88Z" fill="#144C96"/>
<path d="M75.9351 128.02L79.5968 125.902V132.68L75.9351 134.791V128.02Z" fill="#144C96"/>
<path opacity="0.3" d="M75.9351 128.02L79.5968 125.902V132.68L75.9351 134.791V128.02Z" fill="white"/>
<path d="M82.397 122.127L86.0659 120.016V128.947L82.397 131.058V122.127Z" fill="#144C96"/>
<path opacity="0.8" d="M82.397 122.127L86.0659 120.016V128.947L82.397 131.058V122.127Z" fill="white"/>
<path d="M88.866 116.966L92.5277 114.848V125.216L88.866 127.326V116.966Z" fill="#144C96"/>
<path d="M92.4631 106.977C88.4136 115.549 83.0645 118.048 79.7115 117.589C78.7003 117.433 77.7148 117.14 76.7821 116.72C75.1953 116.074 73.9101 115.564 71.3038 117.086C69.6093 118.062 68.2092 119.865 66.845 121.609C65.0859 123.871 63.4273 126.003 61.3954 125.81C59.9594 125.673 58.9758 124.639 58.0065 123.656C56.513 122.112 54.9765 120.511 51.9035 122.277C46.7842 125.235 40.9182 136.457 36.9548 144.635L37.3354 145.016C41.2269 136.974 46.9781 125.953 51.9035 123.11C54.7396 121.473 56.1397 122.923 57.6475 124.453C58.6527 125.494 59.6866 126.571 61.2375 126.714C63.4848 126.93 65.2582 124.661 67.1322 122.256C68.439 120.575 69.7816 118.845 71.3612 117.948C73.8383 116.512 74.9512 116.978 76.5451 117.617C77.4991 118.045 78.5061 118.342 79.5392 118.5C83.0502 118.981 88.6505 116.346 92.9011 107.371L92.4631 106.977Z" fill="#144C96"/>
<path opacity="0.3" d="M92.4631 106.977C88.4136 115.549 83.0645 118.048 79.7115 117.589C78.7003 117.433 77.7148 117.14 76.7821 116.72C75.1953 116.074 73.9101 115.564 71.3038 117.086C69.6093 118.062 68.2092 119.865 66.845 121.609C65.0859 123.871 63.4273 126.003 61.3954 125.81C59.9594 125.673 58.9758 124.639 58.0065 123.656C56.513 122.112 54.9765 120.511 51.9035 122.277C46.7842 125.235 40.9182 136.457 36.9548 144.635L37.3354 145.016C41.2269 136.974 46.9781 125.953 51.9035 123.11C54.7396 121.473 56.1397 122.923 57.6475 124.453C58.6527 125.494 59.6866 126.571 61.2375 126.714C63.4848 126.93 65.2582 124.661 67.1322 122.256C68.439 120.575 69.7816 118.845 71.3612 117.948C73.8383 116.512 74.9512 116.978 76.5451 117.617C77.4991 118.045 78.5061 118.342 79.5392 118.5C83.0502 118.981 88.6505 116.346 92.9011 107.371L92.4631 106.977Z" fill="white"/>
<path d="M35.8063 170.593C35.7279 170.592 35.652 170.565 35.5901 170.517C35.5281 170.469 35.4836 170.403 35.4632 170.327C35.4429 170.251 35.4479 170.171 35.4774 170.098C35.5069 170.026 35.5594 169.965 35.6268 169.925L92.4705 137.019C92.5108 136.995 92.5557 136.979 92.6023 136.972C92.6489 136.966 92.6964 136.968 92.742 136.98C92.7875 136.993 92.8301 137.014 92.8674 137.042C92.9046 137.071 92.9357 137.107 92.9587 137.148C93.0062 137.231 93.0193 137.33 92.9951 137.422C92.9709 137.515 92.9115 137.594 92.8295 137.644L35.9858 170.542C35.9325 170.577 35.8699 170.595 35.8063 170.593Z" fill="#E0E0E0"/>
<path d="M35.8063 173.928C35.7279 173.927 35.652 173.901 35.5901 173.853C35.5281 173.805 35.4836 173.738 35.4632 173.662C35.4429 173.587 35.4479 173.506 35.4774 173.434C35.5069 173.361 35.5594 173.3 35.6268 173.26L92.4705 140.355C92.5534 140.308 92.6513 140.296 92.7428 140.322C92.8343 140.347 92.912 140.408 92.9587 140.491C92.983 140.531 92.999 140.576 93.0056 140.623C93.0123 140.669 93.0095 140.717 92.9974 140.762C92.9854 140.808 92.9643 140.851 92.9354 140.888C92.9066 140.925 92.8706 140.956 92.8295 140.979L35.9858 173.885C35.9306 173.914 35.8688 173.929 35.8063 173.928Z" fill="#E0E0E0"/>
<path d="M35.8062 177.232C35.7435 177.232 35.6821 177.215 35.6279 177.183C35.5737 177.152 35.5288 177.107 35.4974 177.052C35.45 176.969 35.4369 176.871 35.4611 176.778C35.4852 176.686 35.5447 176.606 35.6267 176.557L92.4704 143.659C92.511 143.629 92.5574 143.608 92.6065 143.598C92.6556 143.587 92.7064 143.587 92.7556 143.598C92.8047 143.608 92.8512 143.628 92.8919 143.658C92.9326 143.687 92.9667 143.725 92.9919 143.768C93.0172 143.812 93.033 143.86 93.0384 143.91C93.0439 143.96 93.0388 144.01 93.0235 144.058C93.0081 144.106 92.983 144.15 92.9495 144.188C92.9161 144.225 92.8752 144.255 92.8294 144.276L35.9857 177.182C35.9325 177.217 35.8698 177.234 35.8062 177.232Z" fill="#E0E0E0"/>
<path d="M35.7057 96.4546C35.6273 96.4538 35.5514 96.4274 35.4895 96.3794C35.4275 96.3314 35.383 96.2645 35.3627 96.1888C35.3423 96.1131 35.3473 96.0329 35.3768 95.9603C35.4063 95.8877 35.4588 95.8268 35.5262 95.7868L64.6912 78.9498C64.7722 78.9132 64.8638 78.908 64.9485 78.9351C65.0331 78.9622 65.1047 79.0197 65.1494 79.0965C65.194 79.1734 65.2086 79.264 65.1903 79.351C65.172 79.438 65.122 79.515 65.0502 79.5673L35.9139 96.3828C35.855 96.4303 35.7813 96.4558 35.7057 96.4546Z" fill="#455A64"/>
<path d="M35.7057 99.8249C35.6273 99.8241 35.5514 99.7977 35.4895 99.7497C35.4275 99.7017 35.383 99.6348 35.3627 99.5591C35.3423 99.4834 35.3473 99.4032 35.3768 99.3306C35.4063 99.258 35.4588 99.1971 35.5262 99.1571L79.2737 73.898C79.314 73.8738 79.3588 73.8578 79.4055 73.8512C79.4521 73.8445 79.4996 73.8473 79.5451 73.8594C79.5907 73.8714 79.6333 73.8925 79.6705 73.9213C79.7078 73.9502 79.7388 73.9862 79.7619 74.0273C79.8093 74.1104 79.8224 74.2087 79.7983 74.3013C79.7741 74.3939 79.7147 74.4734 79.6327 74.5227L35.8852 99.7818C35.8294 99.8096 35.768 99.8244 35.7057 99.8249Z" fill="#455A64"/>
<path d="M35.7057 106.56C35.6273 106.559 35.5514 106.533 35.4895 106.485C35.4275 106.437 35.383 106.37 35.3627 106.294C35.3423 106.219 35.3473 106.138 35.3768 106.066C35.4063 105.993 35.4588 105.932 35.5262 105.892L61.7761 90.7354C61.8589 90.6878 61.9573 90.675 62.0495 90.7C62.1418 90.7249 62.2203 90.7854 62.2679 90.8682C62.3155 90.9511 62.3283 91.0494 62.3034 91.1417C62.2785 91.2339 62.2179 91.3125 62.1351 91.3601L35.8852 106.517C35.8294 106.545 35.768 106.56 35.7057 106.56Z" fill="#E0E0E0"/>
<path d="M35.7057 109.927C35.6273 109.926 35.5514 109.899 35.4895 109.851C35.4275 109.803 35.383 109.737 35.3627 109.661C35.3423 109.585 35.3473 109.505 35.3768 109.432C35.4063 109.36 35.4588 109.299 35.5262 109.259L61.7761 94.102C61.8594 94.0574 61.9567 94.0467 62.0476 94.0721C62.1386 94.0975 62.2163 94.1571 62.2643 94.2385C62.2886 94.2788 62.3046 94.3236 62.3112 94.3703C62.3179 94.4169 62.3151 94.4644 62.303 94.5099C62.291 94.5554 62.2699 94.5981 62.241 94.6353C62.2122 94.6726 62.1762 94.7036 62.1351 94.7267L35.9139 109.884C35.8495 109.916 35.7777 109.931 35.7057 109.927Z" fill="#E0E0E0"/>
<path d="M35.7057 113.298C35.6273 113.297 35.5514 113.271 35.4895 113.223C35.4275 113.175 35.383 113.108 35.3627 113.032C35.3423 112.956 35.3473 112.876 35.3768 112.803C35.4063 112.731 35.4588 112.67 35.5262 112.63L61.7761 97.4731C61.8594 97.4285 61.9567 97.4178 62.0476 97.4432C62.1386 97.4686 62.2163 97.5282 62.2643 97.6095C62.2886 97.6499 62.3046 97.6947 62.3112 97.7414C62.3179 97.788 62.3151 97.8355 62.303 97.881C62.291 97.9265 62.2699 97.9692 62.241 98.0064C62.2122 98.0437 62.1762 98.0747 62.1351 98.0978L35.8852 113.255C35.8294 113.283 35.768 113.297 35.7057 113.298Z" fill="#E0E0E0"/>
<path d="M35.7057 116.661C35.6273 116.66 35.5514 116.634 35.4895 116.586C35.4275 116.538 35.383 116.471 35.3627 116.395C35.3423 116.32 35.3473 116.239 35.3768 116.167C35.4063 116.094 35.4588 116.033 35.5262 115.993L61.7761 100.836C61.8594 100.792 61.9567 100.781 62.0476 100.806C62.1386 100.832 62.2163 100.892 62.2643 100.973C62.2886 101.013 62.3046 101.058 62.3112 101.105C62.3179 101.151 62.3151 101.199 62.303 101.244C62.291 101.29 62.2699 101.332 62.241 101.37C62.2122 101.407 62.1762 101.438 62.1351 101.461L35.8852 116.618C35.8294 116.646 35.768 116.661 35.7057 116.661Z" fill="#E0E0E0"/>
<path d="M35.7057 120.028C35.6273 120.027 35.5514 120.001 35.4895 119.953C35.4275 119.905 35.383 119.838 35.3627 119.762C35.3423 119.687 35.3473 119.607 35.3768 119.534C35.4063 119.461 35.4588 119.4 35.5262 119.36L61.7761 104.204C61.8594 104.159 61.9567 104.148 62.0476 104.174C62.1386 104.199 62.2163 104.259 62.2643 104.34C62.2886 104.38 62.3046 104.425 62.3112 104.472C62.3179 104.518 62.3151 104.566 62.303 104.611C62.291 104.657 62.2699 104.7 62.241 104.737C62.2122 104.774 62.1762 104.805 62.1351 104.828L35.8852 119.985C35.8294 120.013 35.768 120.028 35.7057 120.028Z" fill="#E0E0E0"/>
<path d="M35.7057 123.395C35.6273 123.395 35.5514 123.368 35.4895 123.32C35.4275 123.272 35.383 123.205 35.3627 123.13C35.3423 123.054 35.3473 122.974 35.3768 122.901C35.4063 122.829 35.4588 122.768 35.5262 122.728L61.7761 107.571C61.8594 107.526 61.9567 107.515 62.0476 107.541C62.1386 107.566 62.2163 107.626 62.2643 107.707C62.2886 107.748 62.3046 107.792 62.3112 107.839C62.3179 107.886 62.3151 107.933 62.303 107.979C62.291 108.024 62.2699 108.067 62.241 108.104C62.2122 108.141 62.1762 108.172 62.1351 108.195L35.8852 123.352C35.8294 123.38 35.768 123.395 35.7057 123.395Z" fill="#E0E0E0"/>
<path d="M35.7057 126.763C35.6273 126.762 35.5514 126.735 35.4895 126.687C35.4275 126.639 35.383 126.572 35.3627 126.497C35.3423 126.421 35.3473 126.341 35.3768 126.268C35.4063 126.196 35.4588 126.135 35.5262 126.095L61.7761 110.938C61.8594 110.893 61.9567 110.883 62.0476 110.908C62.1386 110.933 62.2163 110.993 62.2643 111.074C62.2886 111.115 62.3046 111.16 62.3112 111.206C62.3179 111.253 62.3151 111.3 62.303 111.346C62.291 111.391 62.2699 111.434 62.241 111.471C62.2122 111.509 62.1762 111.54 62.1351 111.563L35.8852 126.72C35.8294 126.747 35.768 126.762 35.7057 126.763Z" fill="#E0E0E0"/>
<path d="M66.1484 89.0144C66.0858 89.014 66.0243 88.9972 65.9702 88.9657C65.916 88.9343 65.871 88.8891 65.8397 88.8349C65.7923 88.7518 65.7792 88.6534 65.8034 88.5608C65.8275 88.4682 65.8869 88.3888 65.9689 88.3395L92.2189 73.1898C92.2595 73.1602 92.3059 73.1395 92.355 73.129C92.4041 73.1185 92.4549 73.1185 92.5041 73.1288C92.5532 73.1392 92.5996 73.1597 92.6403 73.1892C92.6811 73.2186 92.7151 73.2562 92.7404 73.2997C92.7656 73.3431 92.7815 73.3913 92.7869 73.4413C92.7924 73.4912 92.7873 73.5417 92.7719 73.5896C92.7566 73.6374 92.7314 73.6815 92.698 73.719C92.6646 73.7565 92.6236 73.7865 92.5779 73.8072L66.3279 88.9641C66.2744 88.9982 66.2119 89.0156 66.1484 89.0144Z" fill="#E0E0E0"/>
<path d="M66.1484 92.3816C66.0858 92.3812 66.0243 92.3644 65.9702 92.3329C65.916 92.3014 65.871 92.2563 65.8397 92.2021C65.7923 92.119 65.7792 92.0206 65.8034 91.928C65.8275 91.8354 65.8869 91.756 65.9689 91.7067L92.2189 76.5569C92.2595 76.5274 92.3059 76.5067 92.355 76.4962C92.4041 76.4857 92.4549 76.4856 92.5041 76.496C92.5532 76.5064 92.5996 76.5269 92.6403 76.5563C92.6811 76.5858 92.7151 76.6234 92.7404 76.6668C92.7656 76.7103 92.7815 76.7585 92.7869 76.8084C92.7924 76.8584 92.7873 76.9089 92.7719 76.9567C92.7566 77.0046 92.7314 77.0487 92.698 77.0862C92.6646 77.1237 92.6236 77.1537 92.5779 77.1744L66.3279 92.3313C66.2744 92.3653 66.2119 92.3828 66.1484 92.3816Z" fill="#E0E0E0"/>
<path d="M66.1484 95.7449C66.0858 95.7445 66.0243 95.7277 65.9702 95.6962C65.916 95.6647 65.871 95.6196 65.8397 95.5654C65.7923 95.4823 65.7792 95.3839 65.8034 95.2913C65.8275 95.1987 65.8869 95.1193 65.9689 95.0699L92.2189 79.9202C92.2595 79.8907 92.3059 79.87 92.355 79.8595C92.4041 79.849 92.4549 79.8489 92.5041 79.8593C92.5532 79.8696 92.5996 79.8902 92.6403 79.9196C92.6811 79.9491 92.7151 79.9867 92.7404 80.0301C92.7656 80.0735 92.7815 80.1218 92.7869 80.1717C92.7924 80.2217 92.7873 80.2722 92.7719 80.32C92.7566 80.3679 92.7314 80.412 92.698 80.4495C92.6646 80.487 92.6236 80.517 92.5779 80.5377L66.3279 95.6659C66.2777 95.7102 66.215 95.7378 66.1484 95.7449Z" fill="#E0E0E0"/>
<path d="M66.1488 99.112C66.0704 99.1112 65.9945 99.0848 65.9326 99.0368C65.8707 98.9889 65.8261 98.9219 65.8058 98.8463C65.7854 98.7706 65.7904 98.6903 65.8199 98.6178C65.8494 98.5452 65.9019 98.4843 65.9693 98.4443L92.2192 83.2874C92.2598 83.2579 92.3062 83.2372 92.3554 83.2267C92.4045 83.2162 92.4552 83.2161 92.5044 83.2265C92.5535 83.2368 92.6 83.2574 92.6407 83.2868C92.6814 83.3162 92.7155 83.3539 92.7407 83.3973C92.766 83.4407 92.7818 83.489 92.7873 83.5389C92.7927 83.5889 92.7876 83.6394 92.7723 83.6872C92.757 83.7351 92.7318 83.7792 92.6984 83.8166C92.6649 83.8541 92.624 83.8842 92.5782 83.9049L66.3283 99.0618C66.2747 99.0958 66.2123 99.1133 66.1488 99.112Z" fill="#E0E0E0"/>
<path d="M66.1488 102.482C66.0704 102.481 65.9945 102.455 65.9326 102.407C65.8707 102.359 65.8261 102.292 65.8058 102.216C65.7854 102.141 65.7904 102.061 65.8199 101.988C65.8494 101.915 65.9019 101.854 65.9693 101.814L92.2192 86.6576C92.3023 86.6101 92.4007 86.5971 92.4933 86.6212C92.5859 86.6454 92.6653 86.7048 92.7146 86.7868C92.7596 86.8712 92.7706 86.9696 92.7452 87.0617C92.7198 87.1539 92.6601 87.2328 92.5782 87.2823L66.3283 102.432C66.2747 102.466 66.2123 102.483 66.1488 102.482Z" fill="#E0E0E0"/>
<path d="M66.1488 105.85C66.0704 105.85 65.9945 105.823 65.9326 105.775C65.8707 105.727 65.8261 105.66 65.8058 105.585C65.7854 105.509 65.7904 105.429 65.8199 105.356C65.8494 105.283 65.9019 105.223 65.9693 105.183L92.2192 90.0257C92.2598 89.9961 92.3062 89.9755 92.3554 89.965C92.4045 89.9545 92.4552 89.9544 92.5044 89.9647C92.5535 89.9751 92.6 89.9957 92.6407 90.0251C92.6814 90.0545 92.7155 90.0922 92.7407 90.1356C92.766 90.179 92.7818 90.2273 92.7873 90.2772C92.7927 90.3271 92.7876 90.3776 92.7723 90.4255C92.757 90.4733 92.7318 90.5174 92.6984 90.5549C92.6649 90.5924 92.624 90.6225 92.5782 90.6432L66.3283 105.8C66.2747 105.834 66.2123 105.852 66.1488 105.85Z" fill="#E0E0E0"/>
<path d="M66.1488 109.22C66.0704 109.22 65.9945 109.193 65.9326 109.145C65.8707 109.097 65.8261 109.03 65.8058 108.955C65.7854 108.879 65.7904 108.799 65.8199 108.726C65.8494 108.654 65.9019 108.593 65.9693 108.553L92.2192 93.3959C92.3023 93.3484 92.4007 93.3354 92.4933 93.3595C92.5859 93.3837 92.6653 93.4431 92.7146 93.5251C92.7596 93.6095 92.7706 93.7079 92.7452 93.8C92.7198 93.8922 92.6601 93.9711 92.5782 94.0205L66.3283 109.17C66.2747 109.204 66.2123 109.222 66.1488 109.22Z" fill="#E0E0E0"/>
<path d="M143.355 162.585C143.108 162.282 142.948 161.918 142.89 161.532C142.832 161.146 142.878 160.751 143.024 160.388C143.372 159.36 143.959 158.428 144.736 157.67C145.513 156.912 146.458 156.348 147.495 156.025C147.86 155.885 148.257 155.848 148.642 155.916C149.027 155.985 149.387 156.157 149.682 156.413L177.03 182.314C177.414 182.733 177.671 183.252 177.771 183.812C177.871 184.371 177.81 184.947 177.594 185.473C177.105 186.911 176.283 188.213 175.195 189.274C174.108 190.334 172.785 191.123 171.335 191.576C170.803 191.779 170.225 191.826 169.668 191.712C169.11 191.599 168.596 191.329 168.186 190.935L143.355 162.585Z" fill="#DBDBDB"/>
<path d="M147.456 156.029C149.4 155.533 150.518 156.69 149.983 158.614C149.631 159.64 149.043 160.57 148.267 161.327C147.49 162.085 146.547 162.651 145.512 162.978C143.569 163.464 142.451 162.307 142.995 160.393C143.342 159.365 143.927 158.434 144.703 157.676C145.478 156.918 146.421 156.353 147.456 156.029Z" fill="#DBDBDB"/>
<g opacity="0.25">
<path d="M147.456 156.029C149.4 155.533 150.518 156.69 149.983 158.614C149.631 159.64 149.043 160.57 148.267 161.327C147.49 162.085 146.547 162.651 145.512 162.978C143.569 163.464 142.451 162.307 142.995 160.393C143.342 159.365 143.927 158.434 144.703 157.676C145.478 156.918 146.421 156.353 147.456 156.029Z" fill="black"/>
</g>
<path d="M135.687 151.12C135.898 150.499 136.253 149.936 136.722 149.476C137.192 149.017 137.762 148.675 138.389 148.477C138.61 148.394 138.85 148.373 139.083 148.416C139.316 148.459 139.532 148.564 139.71 148.72L148.457 157.642C148.604 157.827 148.699 158.047 148.733 158.281C148.768 158.515 148.739 158.754 148.652 158.973C148.441 159.594 148.087 160.157 147.617 160.615C147.148 161.073 146.576 161.413 145.95 161.607C145.729 161.691 145.489 161.713 145.257 161.672C145.024 161.631 144.807 161.528 144.628 161.374L135.881 152.461C135.732 152.275 135.636 152.053 135.602 151.817C135.568 151.582 135.597 151.341 135.687 151.12Z" fill="#37474F"/>
<path d="M138.389 148.479C138.235 148.521 138.086 148.576 137.942 148.644H137.864C137.733 148.704 137.607 148.772 137.485 148.848C136.63 149.363 135.991 150.171 135.687 151.122C135.599 151.341 135.571 151.58 135.605 151.814C135.639 152.048 135.734 152.268 135.881 152.454L137.971 154.592C138.722 154.092 139.425 153.523 140.07 152.891L147.777 160.413C148.17 160.003 148.463 159.508 148.632 158.965C148.72 158.746 148.748 158.507 148.714 158.273C148.68 158.039 148.585 157.819 148.438 157.634L139.691 148.712C139.514 148.561 139.3 148.46 139.071 148.419C138.842 148.378 138.607 148.399 138.389 148.479Z" fill="#455A64"/>
<path d="M149.147 160.344L176.758 187.343C177.123 186.762 177.408 186.135 177.604 185.477C177.821 184.951 177.882 184.374 177.78 183.814C177.678 183.254 177.418 182.735 177.031 182.319L149.691 156.418C149.935 156.723 150.094 157.086 150.152 157.472C150.21 157.857 150.165 158.252 150.022 158.614C149.827 159.235 149.532 159.82 149.147 160.344Z" fill="#DBDBDB"/>
<path opacity="0.3" d="M149.147 160.344L176.758 187.343C177.123 186.762 177.408 186.135 177.604 185.477C177.821 184.951 177.882 184.374 177.78 183.814C177.678 183.254 177.418 182.735 177.031 182.319L149.691 156.418C149.935 156.723 150.094 157.086 150.152 157.472C150.21 157.857 150.165 158.252 150.022 158.614C149.827 159.235 149.532 159.82 149.147 160.344Z" fill="white"/>
<path d="M109.805 166.926C114.227 169.473 120.321 169.103 127.065 165.216C140.545 157.441 151.469 138.509 151.469 122.939C151.469 115.164 148.738 109.692 144.326 107.146L139.369 104.23C134.947 101.684 128.844 102.053 122.109 105.941C108.629 113.716 97.7048 132.648 97.7048 148.218C97.7048 155.993 100.436 161.464 104.848 164.011L109.805 166.926ZM148.136 122.939C148.136 129.898 145.755 137.848 141.43 145.292C137.105 152.737 131.419 158.899 125.394 162.32C119.951 165.469 115.004 166.071 111.476 164.03C107.948 161.989 105.995 157.412 105.995 151.124C105.995 144.175 108.376 136.225 112.701 128.77C117.026 121.316 122.711 115.251 128.737 111.772C134.18 108.633 139.117 108.021 142.654 110.061C146.192 112.102 148.136 116.661 148.136 122.939Z" fill="#DBDBDB"/>
<path opacity="0.6" d="M109.805 166.926C114.227 169.473 120.321 169.103 127.065 165.216C140.545 157.441 151.469 138.509 151.469 122.939C151.469 115.164 148.738 109.692 144.326 107.146L139.369 104.23C134.947 101.684 128.844 102.053 122.109 105.941C108.629 113.716 97.7048 132.648 97.7048 148.218C97.7048 155.993 100.436 161.464 104.848 164.011L109.805 166.926ZM148.136 122.939C148.136 129.898 145.755 137.848 141.43 145.292C137.105 152.737 131.419 158.899 125.394 162.32C119.951 165.469 115.004 166.071 111.476 164.03C107.948 161.989 105.995 157.412 105.995 151.124C105.995 144.175 108.376 136.225 112.701 128.77C117.026 121.316 122.711 115.251 128.737 111.772C134.18 108.633 139.117 108.021 142.654 110.061C146.192 112.102 148.136 116.661 148.136 122.939Z" fill="white"/>
<path d="M127.046 108.847C113.566 116.622 102.642 135.554 102.642 151.124C102.642 166.693 113.566 172.991 127.046 165.216C140.526 157.441 151.469 138.489 151.469 122.939C151.469 107.389 140.545 101.072 127.046 108.847ZM142.596 110.033C146.124 112.074 148.077 116.661 148.077 122.939C148.077 129.888 145.696 137.838 141.371 145.293C137.047 152.747 131.419 158.899 125.394 162.32C119.951 165.469 115.014 166.071 111.476 164.03C107.939 161.989 105.995 157.412 105.995 151.124C105.995 144.175 108.376 136.225 112.701 128.77C117.026 121.316 122.711 115.242 128.737 111.772C134.179 108.604 139.117 107.992 142.654 110.033H142.596Z" fill="#DBDBDB"/>
<path opacity="0.3" d="M127.046 108.847C113.566 116.622 102.642 135.554 102.642 151.124C102.642 166.693 113.566 172.991 127.046 165.216C140.526 157.441 151.469 138.489 151.469 122.939C151.469 107.389 140.545 101.072 127.046 108.847ZM142.596 110.033C146.124 112.074 148.077 116.661 148.077 122.939C148.077 129.888 145.696 137.838 141.371 145.293C137.047 152.747 131.419 158.899 125.394 162.32C119.951 165.469 115.014 166.071 111.476 164.03C107.939 161.989 105.995 157.412 105.995 151.124C105.995 144.175 108.376 136.225 112.701 128.77C117.026 121.316 122.711 115.242 128.737 111.772C134.179 108.604 139.117 107.992 142.654 110.033H142.596Z" fill="white"/>
<path opacity="0.3" d="M102.661 151.123C102.661 140.908 107.365 129.246 114.412 120.237L114.353 120.305L109.416 117.438C102.389 126.437 97.7048 138.061 97.7048 148.256C97.7048 156.031 100.436 161.503 104.858 164.049L109.805 166.965L110.067 167.11C105.499 164.584 102.661 159.054 102.661 151.123Z" fill="#DBDBDB"/>
<path d="M142.654 110.036C141.209 109.22 139.57 108.81 137.912 108.85C139.411 111.749 140.128 114.988 139.991 118.248C139.991 125.197 137.62 133.147 133.295 140.602C128.97 148.056 123.275 154.121 117.259 157.59C114.5 159.336 111.336 160.341 108.075 160.506C108.876 161.958 110.05 163.169 111.476 164.014C115.004 166.055 119.951 165.453 125.403 162.304C131.41 158.902 137.115 152.818 141.43 145.296C145.745 137.774 148.136 129.853 148.136 122.943C148.136 116.655 146.192 112.077 142.654 110.036Z" fill="#DBDBDB"/>
<path opacity="0.4" d="M144.452 120.808C144.452 127.767 142.071 135.717 137.746 143.162C133.421 150.606 127.736 156.681 121.71 160.15C117.22 162.745 113.07 163.61 109.776 162.687C107.326 160.286 105.995 156.263 105.995 151.083C105.995 144.134 108.376 136.184 112.701 128.729C117.026 121.275 122.711 115.201 128.737 111.731C133.227 109.136 137.377 108.271 140.672 109.194C143.121 111.605 144.452 115.628 144.452 120.808Z" fill="white"/>
<path opacity="0.1" d="M145.133 107.655C145.231 107.721 145.325 107.792 145.415 107.869L144.948 107.538L144.754 107.402L144.997 107.558L145.133 107.655Z" fill="black"/>
<path opacity="0.1" d="M145.512 107.933C145.586 107.98 145.655 108.035 145.716 108.099C145.625 108.016 145.527 107.942 145.424 107.875L145.512 107.933Z" fill="black"/>
<path opacity="0.1" d="M146.785 109.045L146.348 108.637C146.443 108.716 146.534 108.8 146.62 108.889L146.785 109.045Z" fill="black"/>
</svg>
